<?xml version="1.0" standalone="no"?><!DOCTYPE svg PUBLIC "-//W3C//DTD SVG 1.1//EN" "http://www.w3.org/Graphics/SVG/1.1/DTD/svg11.dtd"><svg t="1526544440326" class="icon" style="" viewBox="0 0 1024 1024" version="1.1" xmlns="http://www.w3.org/2000/svg" p-id="1367" xmlns:xlink="http://www.w3.org/1999/xlink" width="16" height="16"><defs><style type="text/css"></style></defs><path d="M720.2 536.1c-6.6-8.6-18.9-10.2-27.4-3.6s-10.2 18.9-3.6 27.5c30.4 39.7 46.4 87.2 46.4 137.4 0 124.5-100.9 225.9-225 225.9s-225-101.3-225-225.9c0-117.9 90.5-215 205.4-225v166.1h-76.4c-10.8 0-19.6 8.8-19.6 19.6s8.8 19.6 19.6 19.6h38.2c-2.2 6.1-3.4 12.7-3.4 19.6 0 32.4 26.3 58.8 58.5 58.9h84.8c10.8 0 19.6-8.8 19.6-19.6s-8.8-19.6-19.6-19.6h-29.4c2.2-6.1 3.4-12.7 3.4-19.6 0-24.7-15.2-45.8-36.7-54.6V472.5c37.7 3.3 73.9 15.9 105.5 37.2 9 6 21.1 3.6 27.1-5.4s3.6-21.2-5.4-27.2c-38.1-25.6-81.7-40.6-127.3-44V293.7h11.7c10.8 0 19.6-8.8 19.6-19.6s-8.8-19.6-19.6-19.6h-11.7v-57.6h49.9c10.8 0 19.6-8.8 19.6-19.6s-8.8-19.6-19.6-19.6h-81.9c-42.2 0-76.6-34.5-76.6-76.9 0-10.8-8.8-19.6-19.6-19.6s-19.6 8.8-19.6 19.6c0 61.6 48.1 112.2 108.6 115.9v57.9H479c-10.8 0-19.6 8.8-19.6 19.6s8.8 19.6 19.6 19.6h11.7v139.4C354.2 443.3 246.2 558 246.2 697.6c0 146.2 118.5 265.1 264.1 265.1s264.1-118.9 264.1-265.1c0.3-59.1-18.5-114.8-54.2-161.5z" fill="#2E0C08" p-id="1368"></path><path d="M508.2 677.9c-10.8 0-19.5 8.8-19.5 19.6s8.8 19.6 19.5 19.6c10.8 0 19.5-8.8 19.5-19.6s-8.7-19.6-19.5-19.6z" fill="#F6442C" p-id="1369"></path></svg>